<?xml version="1.0" encoding="UTF-8"?>
<svg version="1.1" xmlns="http://www.w3.org/2000/svg" width="510" height="512">
<path d="M0 0 C1.0711238 -0.00507454 2.1422476 -0.01014909 3.2458297 -0.0153774 C5.00216109 -0.01612404 5.00216109 -0.01612404 6.79397392 -0.01688576 C8.04257442 -0.02126801 9.29117492 -0.02565027 10.5776118 -0.03016531 C14.04131723 -0.04210345 17.50500874 -0.0477729 20.96873069 -0.05234647 C24.70592834 -0.05831346 28.44310947 -0.06992094 32.18029594 -0.08063698 C41.20767019 -0.105142 50.23504991 -0.11978851 59.26244718 -0.13269705 C61.81493131 -0.13641138 64.36741491 -0.14038444 66.91989851 -0.14444971 C82.78944322 -0.16969657 98.65898884 -0.19173768 114.52854919 -0.20417786 C118.20335836 -0.20710731 121.87816751 -0.210069 125.55297661 -0.21308327 C126.46627455 -0.21382932 127.3795725 -0.21457537 128.32054614 -0.21534403 C143.08993113 -0.22797671 157.85919517 -0.26117205 172.62852372 -0.3028851 C187.81275116 -0.34541596 202.99691691 -0.36888601 218.18120372 -0.37409842 C226.69798324 -0.37750071 235.21457402 -0.38911482 243.73129463 -0.42220116 C250.99059518 -0.45035699 258.24966827 -0.4611337 265.50901915 -0.4500057 C269.205676 -0.4448577 272.90185777 -0.44744975 276.59844398 -0.47247124 C292.31157332 -0.57307304 306.67722542 -0.0517468 321.62768364 5.13701439 C322.86392542 5.55665773 324.1001672 5.97630108 325.37387085 6.40866089 C336.4495745 10.31442874 346.33146337 15.98540246 355.81518364 22.82451439 C356.46342094 23.28809349 357.11165825 23.75167259 357.77953911 24.22929955 C360.95388994 26.58484587 363.15053669 28.43997428 364.62768364 32.13701439 C365.94301774 32.83852591 367.27885956 33.50227364 368.62768364 34.13701439 C370.87768364 36.13701439 370.87768364 36.13701439 372.62768364 38.13701439 C372.62768364 38.79701439 372.62768364 39.45701439 372.62768364 40.13701439 C373.21549614 40.36775658 373.80330864 40.59849876 374.40893364 40.83623314 C377.19240439 42.46809187 378.35668999 44.26484901 380.12768364 46.94951439 C381.96838194 49.69482937 383.7539212 52.28779814 385.87768364 54.82451439 C387.65507008 57.17320362 388.70803736 59.4805616 389.78393364 62.21123314 C390.71404131 64.33411777 391.86065889 66.22012768 393.06518364 68.19951439 C396.43446546 74.13875892 397.92348558 80.56890342 399.62768364 87.13701439 C400.18888337 89.13737964 400.75126372 91.13741429 401.31518364 93.13701439 C403.49435466 100.92846387 403.77416485 108.24738357 403.76812553 116.29862022 C403.77258222 118.15253469 403.77258222 118.15253469 403.77712893 120.04390198 C403.78429518 123.46748052 403.78698716 126.89100887 403.7877264 130.31459129 C403.78958123 134.01010947 403.79713087 137.70561686 403.80386162 141.40112877 C403.81742975 149.48003388 403.82346768 157.55893401 403.82787228 165.63784862 C403.83063805 170.68707684 403.83487609 175.73630316 403.83937645 180.78553009 C403.85156861 194.7779036 403.86186707 208.77027559 403.86525154 222.7626543 C403.86547111 223.65782397 403.86569067 224.55299363 403.86591689 225.47528965 C403.86613517 226.37255335 403.86635345 227.26981704 403.86657834 228.19427055 C403.8670218 230.01234337 403.86746836 231.83041618 403.86791801 233.648489 C403.86813944 234.55030822 403.86836087 235.45212745 403.86858901 236.38127453 C403.87253307 250.97866598 403.88997533 265.57600739 403.91327754 280.17337953 C403.93703361 295.17681854 403.94945538 310.1802325 403.95061946 325.18369061 C403.95153399 333.60078632 403.95722986 342.01781687 403.97543907 350.43489456 C403.99089781 357.60568345 403.99592678 364.77638705 403.98770097 371.94718944 C403.98381438 375.60070945 403.98462546 379.25405802 403.99875832 382.90755653 C404.10067124 410.84167558 404.10067124 410.84167558 400.62768364 423.13701439 C400.3159313 424.35616366 400.3159313 424.35616366 399.99788094 425.59994221 C398.09617244 432.75181531 395.80356933 439.68259763 391.92455864 446.01592064 C390.45939786 448.41225288 389.21766375 450.88588058 387.94018364 453.38701439 C385.43557193 457.99733098 382.55128442 462.16140641 379.37768364 466.32451439 C378.94109428 466.90169212 378.50450493 467.47886986 378.05468559 468.07353783 C376.96378581 469.46978769 375.80118725 470.80943566 374.62768364 472.13701439 C373.96768364 472.13701439 373.30768364 472.13701439 372.62768364 472.13701439 C372.25643364 473.00326439 372.25643364 473.00326439 371.87768364 473.88701439 C370.44468375 476.46641418 368.84343687 478.19823031 366.62768364 480.13701439 C365.96768364 480.13701439 365.30768364 480.13701439 364.62768364 480.13701439 C364.3622979 480.7406179 364.09691216 481.34422142 363.82348442 481.96611595 C355.41722444 497.22713346 329.63576219 504.93628606 314.13964653 509.48613548 C313.31069878 509.70092552 312.48175102 509.91571556 311.62768364 510.13701439 C310.3530633 510.47492311 309.07844296 510.81283184 307.76519775 511.16098022 C301.82339928 512.46502551 295.97603711 512.42054032 289.91549492 512.40443993 C288.0271089 512.4112366 288.0271089 512.4112366 286.10057366 512.41817057 C282.62675398 512.4303414 279.15303103 512.43014713 275.67919493 512.42778182 C271.92441499 512.42737214 268.16966544 512.43842726 264.41489983 512.44789696 C257.06572131 512.46447608 249.71657489 512.47000513 242.36737923 512.47112171 C236.38945692 512.47207378 230.41154515 512.47619199 224.43362617 512.48252296 C207.46348283 512.50012798 190.49336472 512.50936315 173.52321218 512.50786202 C172.15228395 512.50774215 172.15228395 512.50774215 170.7536602 512.50761986 C169.83858441 512.5075381 168.92350861 512.50745634 167.98070325 512.5073721 C153.16038675 512.5065597 138.34017201 512.52568756 123.51988493 512.55389659 C108.28130311 512.58267152 93.04277085 512.59643431 77.80416119 512.59470904 C69.25742616 512.59404666 60.71079776 512.59947169 52.1640873 512.62106514 C44.88538425 512.63933785 37.60683617 512.64357466 30.32812004 512.63004629 C26.61985276 512.6235468 22.91188226 512.62328882 19.2036438 512.64075279 C-9.0195681 512.76550519 -9.0195681 512.76550519 -21.37231636 508.13701439 C-22.16342371 507.88205885 -22.95453106 507.62710331 -23.76961136 507.36442184 C-36.42250125 503.26110236 -47.78079238 497.20922559 -58.55981636 489.44951439 C-59.20829536 488.98585472 -59.85677437 488.52219505 -60.52490425 488.04448509 C-63.69878686 485.68876643 -65.89526664 483.83381116 -67.37231636 480.13701439 C-68.68765046 479.43550287 -70.02349228 478.77175513 -71.37231636 478.13701439 C-73.62231636 476.13701439 -73.62231636 476.13701439 -75.37231636 474.13701439 C-75.37231636 473.47701439 -75.37231636 472.81701439 -75.37231636 472.13701439 C-75.97680611 471.87887962 -76.58129585 471.62074486 -77.20410347 471.35478783 C-79.58551391 470.01727231 -80.54534927 468.89575038 -82.06372261 466.65263939 C-82.76851753 465.62010033 -82.76851753 465.62010033 -83.48755074 464.56670189 C-83.96514839 463.84740501 -84.44274605 463.12810814 -84.93481636 462.38701439 C-85.4162812 461.68318626 -85.89774605 460.97935814 -86.39380074 460.25420189 C-89.04218715 456.33444428 -91.34254074 452.4207498 -93.37231636 448.13701439 C-93.77192574 447.39580345 -94.17153511 446.65459251 -94.58325386 445.89092064 C-98.42745566 438.65401726 -101.25648597 431.04964694 -103.37231636 423.13701439 C-103.62339968 422.25333183 -103.87448299 421.36964928 -104.1331749 420.45918846 C-107.28801855 407.44520244 -106.80112337 394.22647845 -106.76449037 380.9148469 C-106.7576397 377.2256111 -106.76821059 373.53641631 -106.77643013 369.84718895 C-106.78970613 362.63917786 -106.78691726 355.43126098 -106.77819221 348.22324634 C-106.77139176 342.36035759 -106.7705091 336.49749507 -106.77376366 330.6346035 C-106.77422336 329.79725688 -106.77468305 328.95991025 -106.77515668 328.09718949 C-106.77611595 326.39565046 -106.77708859 324.69411144 -106.77807446 322.99257243 C-106.78661038 307.07143543 -106.77682252 291.15035041 -106.76067336 275.22922194 C-106.74727182 261.59526997 -106.74960042 247.96139466 -106.76342964 234.32744408 C-106.77951731 218.45971829 -106.78578658 202.59203796 -106.77659285 186.72430515 C-106.7756373 185.0293452 -106.77469418 183.33438524 -106.77376366 181.63942528 C-106.77330083 180.80567125 -106.772838 179.97191723 -106.77236115 179.11289793 C-106.76978081 173.26326972 -106.77412155 167.41367057 -106.78120232 161.56404686 C-106.78965303 154.42640141 -106.78726263 147.28885482 -106.77136008 140.15122056 C-106.76352509 136.51587442 -106.76030324 132.88069256 -106.77030754 129.24534798 C-106.84028146 101.55439921 -106.84028146 101.55439921 -103.37231636 89.13701439 C-103.18565092 88.36632118 -102.99898548 87.59562798 -102.80666351 86.80158043 C-98.46658042 69.3284594 -89.06508361 53.69040919 -77.37231636 40.13701439 C-76.71231636 40.13701439 -76.05231636 40.13701439 -75.37231636 40.13701439 C-75.12481636 39.55951439 -74.87731636 38.98201439 -74.62231636 38.38701439 C-73.18931648 35.8076146 -71.5880696 34.07579847 -69.37231636 32.13701439 C-68.71231636 32.13701439 -68.05231636 32.13701439 -67.37231636 32.13701439 C-67.10838081 31.53413597 -66.84444527 30.93125755 -66.57251167 30.31011009 C-64.58547041 26.71233663 -61.38348183 24.73429684 -58.12231636 22.32451439 C-57.41010933 21.79479027 -56.6979023 21.26506615 -55.96411324 20.71928978 C-44.60838057 12.47580372 -32.09722668 7.39550049 -18.68481636 3.51201439 C-17.95198433 3.29545189 -17.2191523 3.07888939 -16.46411324 2.85576439 C-10.93563209 1.24059046 -5.79924145 0.01463665 0 0 Z " fill="#FDFDFD" transform="translate(106.37231636047363,-0.13701438903808594)"/>
<path d="M0 0 C1.0711238 -0.00507454 2.1422476 -0.01014909 3.2458297 -0.0153774 C5.00216109 -0.01612404 5.00216109 -0.01612404 6.79397392 -0.01688576 C8.04257442 -0.02126801 9.29117492 -0.02565027 10.5776118 -0.03016531 C14.04131723 -0.04210345 17.50500874 -0.0477729 20.96873069 -0.05234647 C24.70592834 -0.05831346 28.44310947 -0.06992094 32.18029594 -0.08063698 C41.20767019 -0.105142 50.23504991 -0.11978851 59.26244718 -0.13269705 C61.81493131 -0.13641138 64.36741491 -0.14038444 66.91989851 -0.14444971 C82.78944322 -0.16969657 98.65898884 -0.19173768 114.52854919 -0.20417786 C118.20335836 -0.20710731 121.87816751 -0.210069 125.55297661 -0.21308327 C126.46627455 -0.21382932 127.3795725 -0.21457537 128.32054614 -0.21534403 C143.08993113 -0.22797671 157.85919517 -0.26117205 172.62852372 -0.3028851 C187.81275116 -0.34541596 202.99691691 -0.36888601 218.18120372 -0.37409842 C226.69798324 -0.37750071 235.21457402 -0.38911482 243.73129463 -0.42220116 C250.99059518 -0.45035699 258.24966827 -0.4611337 265.50901915 -0.4500057 C269.205676 -0.4448577 272.90185777 -0.44744975 276.59844398 -0.47247124 C292.31157332 -0.57307304 306.67722542 -0.0517468 321.62768364 5.13701439 C322.86392542 5.55665773 324.1001672 5.97630108 325.37387085 6.40866089 C336.4495745 10.31442874 346.33146337 15.98540246 355.81518364 22.82451439 C356.46342094 23.28809349 357.11165825 23.75167259 357.77953911 24.22929955 C360.95388994 26.58484587 363.15053669 28.43997428 364.62768364 32.13701439 C365.94301774 32.83852591 367.27885956 33.50227364 368.62768364 34.13701439 C370.87768364 36.13701439 370.87768364 36.13701439 372.62768364 38.13701439 C372.62768364 38.79701439 372.62768364 39.45701439 372.62768364 40.13701439 C373.21549614 40.36775658 373.80330864 40.59849876 374.40893364 40.83623314 C377.19240439 42.46809187 378.35668999 44.26484901 380.12768364 46.94951439 C381.96838194 49.69482937 383.7539212 52.28779814 385.87768364 54.82451439 C387.65507008 57.17320362 388.70803736 59.4805616 389.78393364 62.21123314 C390.71404131 64.33411777 391.86065889 66.22012768 393.06518364 68.19951439 C396.43446546 74.13875892 397.92348558 80.56890342 399.62768364 87.13701439 C400.18888337 89.13737964 400.75126372 91.13741429 401.31518364 93.13701439 C403.49435466 100.92846387 403.77416485 108.24738357 403.76812553 116.29862022 C403.77258222 118.15253469 403.77258222 118.15253469 403.77712893 120.04390198 C403.78429518 123.46748052 403.78698716 126.89100887 403.7877264 130.31459129 C403.78958123 134.01010947 403.79713087 137.70561686 403.80386162 141.40112877 C403.81742975 149.48003388 403.82346768 157.55893401 403.82787228 165.63784862 C403.83063805 170.68707684 403.83487609 175.73630316 403.83937645 180.78553009 C403.85156861 194.7779036 403.86186707 208.77027559 403.86525154 222.7626543 C403.86547111 223.65782397 403.86569067 224.55299363 403.86591689 225.47528965 C403.86613517 226.37255335 403.86635345 227.26981704 403.86657834 228.19427055 C403.8670218 230.01234337 403.86746836 231.83041618 403.86791801 233.648489 C403.86813944 234.55030822 403.86836087 235.45212745 403.86858901 236.38127453 C403.87253307 250.97866598 403.88997533 265.57600739 403.91327754 280.17337953 C403.93703361 295.17681854 403.94945538 310.1802325 403.95061946 325.18369061 C403.95153399 333.60078632 403.95722986 342.01781687 403.97543907 350.43489456 C403.99089781 357.60568345 403.99592678 364.77638705 403.98770097 371.94718944 C403.98381438 375.60070945 403.98462546 379.25405802 403.99875832 382.90755653 C404.10067124 410.84167558 404.10067124 410.84167558 400.62768364 423.13701439 C400.3159313 424.35616366 400.3159313 424.35616366 399.99788094 425.59994221 C398.09617244 432.75181531 395.80356933 439.68259763 391.92455864 446.01592064 C390.45939786 448.41225288 389.21766375 450.88588058 387.94018364 453.38701439 C385.43557193 457.99733098 382.55128442 462.16140641 379.37768364 466.32451439 C378.94109428 466.90169212 378.50450493 467.47886986 378.05468559 468.07353783 C376.96378581 469.46978769 375.80118725 470.80943566 374.62768364 472.13701439 C373.96768364 472.13701439 373.30768364 472.13701439 372.62768364 472.13701439 C372.25643364 473.00326439 372.25643364 473.00326439 371.87768364 473.88701439 C370.44468375 476.46641418 368.84343687 478.19823031 366.62768364 480.13701439 C365.96768364 480.13701439 365.30768364 480.13701439 364.62768364 480.13701439 C364.3622979 480.7406179 364.09691216 481.34422142 363.82348442 481.96611595 C355.41722444 497.22713346 329.63576219 504.93628606 314.13964653 509.48613548 C313.31069878 509.70092552 312.48175102 509.91571556 311.62768364 510.13701439 C310.3530633 510.47492311 309.07844296 510.81283184 307.76519775 511.16098022 C301.82339928 512.46502551 295.97603711 512.42054032 289.91549492 512.40443993 C288.0271089 512.4112366 288.0271089 512.4112366 286.10057366 512.41817057 C282.62675398 512.4303414 279.15303103 512.43014713 275.67919493 512.42778182 C271.92441499 512.42737214 268.16966544 512.43842726 264.41489983 512.44789696 C257.06572131 512.46447608 249.71657489 512.47000513 242.36737923 512.47112171 C236.38945692 512.47207378 230.41154515 512.47619199 224.43362617 512.48252296 C207.46348283 512.50012798 190.49336472 512.50936315 173.52321218 512.50786202 C172.15228395 512.50774215 172.15228395 512.50774215 170.7536602 512.50761986 C169.83858441 512.5075381 168.92350861 512.50745634 167.98070325 512.5073721 C153.16038675 512.5065597 138.34017201 512.52568756 123.51988493 512.55389659 C108.28130311 512.58267152 93.04277085 512.59643431 77.80416119 512.59470904 C69.25742616 512.59404666 60.71079776 512.59947169 52.1640873 512.62106514 C44.88538425 512.63933785 37.60683617 512.64357466 30.32812004 512.63004629 C26.61985276 512.6235468 22.91188226 512.62328882 19.2036438 512.64075279 C-9.0195681 512.76550519 -9.0195681 512.76550519 -21.37231636 508.13701439 C-22.16342371 507.88205885 -22.95453106 507.62710331 -23.76961136 507.36442184 C-36.42250125 503.26110236 -47.78079238 497.20922559 -58.55981636 489.44951439 C-59.20829536 488.98585472 -59.85677437 488.52219505 -60.52490425 488.04448509 C-63.69878686 485.68876643 -65.89526664 483.83381116 -67.37231636 480.13701439 C-68.68765046 479.43550287 -70.02349228 478.77175513 -71.37231636 478.13701439 C-73.62231636 476.13701439 -73.62231636 476.13701439 -75.37231636 474.13701439 C-75.37231636 473.47701439 -75.37231636 472.81701439 -75.37231636 472.13701439 C-75.97680611 471.87887962 -76.58129585 471.62074486 -77.20410347 471.35478783 C-79.58551391 470.01727231 -80.54534927 468.89575038 -82.06372261 466.65263939 C-82.76851753 465.62010033 -82.76851753 465.62010033 -83.48755074 464.56670189 C-83.96514839 463.84740501 -84.44274605 463.12810814 -84.93481636 462.38701439 C-85.4162812 461.68318626 -85.89774605 460.97935814 -86.39380074 460.25420189 C-89.04218715 456.33444428 -91.34254074 452.4207498 -93.37231636 448.13701439 C-93.77192574 447.39580345 -94.17153511 446.65459251 -94.58325386 445.89092064 C-98.42745566 438.65401726 -101.25648597 431.04964694 -103.37231636 423.13701439 C-103.62339968 422.25333183 -103.87448299 421.36964928 -104.1331749 420.45918846 C-107.28801855 407.44520244 -106.80112337 394.22647845 -106.76449037 380.9148469 C-106.7576397 377.2256111 -106.76821059 373.53641631 -106.77643013 369.84718895 C-106.78970613 362.63917786 -106.78691726 355.43126098 -106.77819221 348.22324634 C-106.77139176 342.36035759 -106.7705091 336.49749507 -106.77376366 330.6346035 C-106.77422336 329.79725688 -106.77468305 328.95991025 -106.77515668 328.09718949 C-106.77611595 326.39565046 -106.77708859 324.69411144 -106.77807446 322.99257243 C-106.78661038 307.07143543 -106.77682252 291.15035041 -106.76067336 275.22922194 C-106.74727182 261.59526997 -106.74960042 247.96139466 -106.76342964 234.32744408 C-106.77951731 218.45971829 -106.78578658 202.59203796 -106.77659285 186.72430515 C-106.7756373 185.0293452 -106.77469418 183.33438524 -106.77376366 181.63942528 C-106.77330083 180.80567125 -106.772838 179.97191723 -106.77236115 179.11289793 C-106.76978081 173.26326972 -106.77412155 167.41367057 -106.78120232 161.56404686 C-106.78965303 154.42640141 -106.78726263 147.28885482 -106.77136008 140.15122056 C-106.76352509 136.51587442 -106.76030324 132.88069256 -106.77030754 129.24534798 C-106.84028146 101.55439921 -106.84028146 101.55439921 -103.37231636 89.13701439 C-103.18565092 88.36632118 -102.99898548 87.59562798 -102.80666351 86.80158043 C-98.46658042 69.3284594 -89.06508361 53.69040919 -77.37231636 40.13701439 C-76.71231636 40.13701439 -76.05231636 40.13701439 -75.37231636 40.13701439 C-75.12481636 39.55951439 -74.87731636 38.98201439 -74.62231636 38.38701439 C-73.18931648 35.8076146 -71.5880696 34.07579847 -69.37231636 32.13701439 C-68.71231636 32.13701439 -68.05231636 32.13701439 -67.37231636 32.13701439 C-67.10838081 31.53413597 -66.84444527 30.93125755 -66.57251167 30.31011009 C-64.58547041 26.71233663 -61.38348183 24.73429684 -58.12231636 22.32451439 C-57.41010933 21.79479027 -56.6979023 21.26506615 -55.96411324 20.71928978 C-44.60838057 12.47580372 -32.09722668 7.39550049 -18.68481636 3.51201439 C-17.95198433 3.29545189 -17.2191523 3.07888939 -16.46411324 2.85576439 C-10.93563209 1.24059046 -5.79924145 0.01463665 0 0 Z M-20.80981636 40.76201439 C-21.91063545 41.27707542 -21.91063545 41.27707542 -23.03369331 41.80254173 C-29.81424011 45.10110584 -35.60291385 49.27904987 -41.37231636 54.13701439 C-42.03360542 54.6487722 -42.69489449 55.16053001 -43.37622261 55.68779564 C-57.5936008 66.97900203 -69.05453499 87.70636069 -71.17090344 105.71554756 C-71.57582204 110.58364123 -71.52406449 115.46066912 -71.52621651 120.3425808 C-71.53059876 121.5591093 -71.53498101 122.7756378 -71.53949606 124.0290308 C-71.5505075 127.38914833 -71.55709177 130.74921971 -71.56167722 134.10934854 C-71.56766285 137.74009582 -71.57926497 141.37082626 -71.58996773 145.00156212 C-71.61442146 153.76070149 -71.6291071 162.51984639 -71.6420278 171.27900934 C-71.64574441 173.75571446 -71.64971723 176.23241904 -71.65378046 178.70912361 C-71.67901808 194.11252597 -71.70105558 209.51592931 -71.71350861 224.91934776 C-71.71643794 228.48230047 -71.71939966 232.04525316 -71.72241402 235.6082058 C-71.72316007 236.49367863 -71.72390612 237.37915147 -71.72467478 238.29145682 C-71.73732062 252.62618888 -71.77053805 266.96079669 -71.81221585 281.29547071 C-71.85471915 296.03568379 -71.87821316 310.77583339 -71.88342917 325.51610756 C-71.8868334 333.78291489 -71.89847179 342.0495279 -71.93153191 350.31627464 C-71.95964903 357.35819909 -71.97048085 364.3998893 -71.95933644 371.4418655 C-71.95417973 375.02881255 -71.95683911 378.61526999 -71.98180199 382.20214462 C-72.07687293 396.63485535 -72.15574856 409.70839931 -66.37231636 423.13701439 C-66.01502638 424.0091407 -65.6577364 424.88126701 -65.28961945 425.7798214 C-64.45895394 427.74465864 -63.54925683 429.62289499 -62.55981636 431.51201439 C-62.21853706 432.17427025 -61.87725777 432.83652611 -61.52563667 433.51885033 C-58.44621742 439.31290914 -54.83200049 444.31279955 -50.37231636 449.13701439 C-49.93935249 449.61622337 -49.50638863 450.09543236 -49.06030464 450.58916283 C-34.21973808 466.88124321 -14.47866988 476.68001981 7.62931871 478.36591029 C15.97302107 478.73545543 24.32131308 478.67118532 32.67114067 478.63872337 C35.46554444 478.64030547 38.25992528 478.64786775 41.05431938 478.65509605 C47.81511107 478.66893009 54.57571424 478.66154628 61.33649673 478.64642047 C69.22993664 478.62944188 77.12333114 478.63278538 85.0167837 478.63651455 C99.11091704 478.64237491 113.20496066 478.62829252 127.29907036 478.60356712 C140.93842746 478.57964261 154.57766479 478.57256879 168.21703911 478.58305931 C183.11501421 478.59449754 198.01293411 478.5963635 212.91090858 478.58196121 C214.50276811 478.58043557 216.09462765 478.57891521 217.6864872 478.57740021 C218.86094874 478.57626349 218.86094874 478.57626349 220.05913679 478.5751038 C225.54614745 478.57038409 231.03313325 478.57219581 236.52014351 478.57646561 C243.21596158 478.58141876 249.911667 478.57529064 256.60745944 478.55557131 C260.01615922 478.54577604 263.42454747 478.5421451 266.83327675 478.54846382 C297.46907429 478.59810702 322.45990174 473.68916301 345.31518364 451.76201439 C353.36069208 443.46199074 359.17089456 433.78375365 363.62768364 423.13701439 C364.24438722 421.81677961 364.24438722 421.81677961 364.87354946 420.46987343 C370.01801484 407.77011585 369.32322695 394.69464242 369.23732984 381.19438267 C369.21967712 377.54612324 369.23124807 373.89793258 369.23899651 370.24965477 C369.24961431 363.12311329 369.23380894 355.99686979 369.20885824 348.8703737 C369.18079756 340.55909028 369.17958481 332.24786557 369.17941523 323.93654266 C369.17823051 309.10291255 369.15333289 294.26941846 369.11474419 279.43584251 C369.07737805 265.06277904 369.0561463 250.68981441 369.05322075 236.31670189 C369.05303794 235.4307635 369.05285513 234.54482512 369.05266678 233.63204011 C369.05239832 232.30536002 369.05239832 232.30536002 369.05212444 230.95187831 C369.051759 229.17082071 369.05138663 227.38976312 369.05100727 225.60870552 C369.05082176 224.73021302 369.05063624 223.85172052 369.05044511 222.94660704 C369.04687023 209.21654774 369.02841903 195.48650356 369.00851403 181.7564597 C369.00150805 176.79180232 368.99671585 171.82714853 368.99355268 166.86248729 C368.98849171 158.98892175 368.9769943 151.11542463 368.95225238 143.24189422 C368.94107592 139.64758841 368.9329134 136.05334925 368.93338585 132.45902443 C368.93375367 128.55530196 368.91854121 124.651726 368.9018383 120.74803734 C368.90425339 119.6230259 368.90666847 118.49801446 368.90915674 117.33891177 C368.83034571 105.5414503 366.5770978 95.81732916 361.62768364 85.13701439 C361.17264458 84.1225222 360.71760551 83.10803001 360.24877739 82.06279564 C356.89431327 74.92427663 352.88077329 69.01039507 347.62768364 63.13701439 C346.94963676 62.37646751 346.27158989 61.61592064 345.57299614 60.83232689 C332.4022321 46.88964994 311.78856038 34.80611561 292.2174803 34.04304075 C289.19072283 34.00192487 286.16542043 33.99415791 283.13838005 33.99657249 C281.97467972 33.99360137 280.8109794 33.99063025 279.61201543 33.98756909 C276.38999293 33.98040551 273.16800299 33.97771106 269.94597375 33.97697163 C266.46714966 33.97511606 262.98833702 33.96756588 259.50951958 33.96083641 C251.9034714 33.94726913 244.29742851 33.94122999 236.69137025 33.93682575 C231.93491775 33.93405885 227.17846727 33.92982052 222.42201614 33.92532158 C209.23430096 33.91312768 196.04658739 33.90283077 182.85886669 33.89944649 C182.01515267 33.89922692 181.17143865 33.89900736 180.30215753 33.89878114 C179.03365591 33.89845372 179.03365591 33.89845372 177.739528 33.89811969 C176.02605839 33.89767623 174.31258879 33.89722967 172.59911919 33.89678001 C171.74918965 33.89655858 170.89926012 33.89633715 170.02357515 33.89610901 C156.2792327 33.89216858 142.53494352 33.87473823 128.79062162 33.85142049 C114.6550127 33.82763419 100.5194304 33.81524122 86.38380116 33.81407857 C78.45730228 33.81316553 70.53087267 33.80750805 62.60439301 33.78925896 C55.84837011 33.77375895 49.09243787 33.768795 42.33640055 33.77699706 C38.89705913 33.7808698 35.45789971 33.78014255 32.01858139 33.76593971 C4.92251331 33.27110785 4.92251331 33.27110785 -20.80981636 40.76201439 Z " fill="#010101" transform="translate(106.37231636047363,-0.13701438903808594)"/>
<path d="M0 0 C12.23576355 7.15467675 19.34056584 16.1072819 23.59765625 29.59765625 C25.85705624 41.20846176 23.65650093 51.16683716 19.01953125 61.765625 C18.35953125 61.765625 17.69953125 61.765625 17.01953125 61.765625 C16.64828125 62.8484375 16.64828125 62.8484375 16.26953125 63.953125 C12.05593067 73.43372629 2.13785753 78.67809942 -6.98046875 82.765625 C-17.13858459 85.78131564 -30.00743633 84.9883378 -39.40625 80.30859375 C-50.17541527 73.85363126 -59.06508634 64.72790319 -62.6640625 52.4296875 C-65.54593276 39.82895822 -64.54226201 27.2481965 -57.85546875 16.015625 C-44.72511546 -3.03572267 -20.9382257 -10.43255018 0 0 Z " fill="#161616" transform="translate(176.98046875,216.234375)"/>
<path d="M0 0 C9.98385122 5.8196024 19.32837976 14.45198178 22.6484375 25.94921875 C25.3844028 39.12962302 24.54987873 52.03718912 17.37109375 63.7421875 C16.92378906 64.40734375 16.47648437 65.0725 16.015625 65.7578125 C15.61988281 66.36109375 15.22414063 66.964375 14.81640625 67.5859375 C8.93092421 75.43324688 -1.60088794 81.23976666 -10.984375 83.7578125 C-14.101683 84.19439883 -17.15178331 84.2826472 -20.296875 84.2578125 C-21.54863525 84.25031982 -21.54863525 84.25031982 -22.82568359 84.24267578 C-29.8043543 84.04615078 -35.03685405 82.48862015 -40.984375 78.7578125 C-41.76941406 78.32339844 -42.55445313 77.88898438 -43.36328125 77.44140625 C-53.75691168 71.26853945 -59.87893949 61.19355885 -63.59375 49.90625 C-65.67945545 38.43487 -64.24318685 26.78808543 -58.18359375 16.78515625 C-44.62274076 -2.77933651 -22.01283567 -11.00641783 0 0 Z " fill="#161616" transform="translate(372.984375,216.2421875)"/>
<path d="M0 0 C11.18893023 7.43065232 19.30839804 17.08337033 22.03515625 30.3515625 C23.47783605 43.71320435 20.66053096 55.3623531 12.66796875 66.3671875 C5.89052365 74.60389112 -3.71700825 81.06505171 -14.40966797 82.73291016 C-27.85746209 83.95543689 -39.48535 81.70426323 -50.15625 73.0078125 C-56.2110596 67.46301926 -60.10401167 62.046671 -62.96484375 54.3515625 C-63.26390625 53.65417969 -63.56296875 52.95679688 -63.87109375 52.23828125 C-67.89230185 42.05494406 -66.76587365 30.4546717 -62.96484375 20.3515625 C-61.21799888 17.12699452 -59.21324385 14.24320567 -56.96484375 11.3515625 C-56.22234375 10.3409375 -55.47984375 9.3303125 -54.71484375 8.2890625 C-54.13734375 7.6496875 -53.55984375 7.0103125 -52.96484375 6.3515625 C-52.30484375 6.3515625 -51.64484375 6.3515625 -50.96484375 6.3515625 C-50.96484375 5.6915625 -50.96484375 5.0315625 -50.96484375 4.3515625 C-48.78266941 3.05012704 -46.59479133 1.76048823 -44.40234375 0.4765625 C-43.4887207 -0.07064453 -43.4887207 -0.07064453 -42.55664062 -0.62890625 C-29.25264184 -8.37197433 -13.38790474 -7.20252781 0 0 Z " fill="#151515" transform="translate(178.96484375,103.6484375)"/>
<path d="M0 0 C12.48435608 6.25976164 21.87928203 15.84931241 26.390625 29.10546875 C28.83509046 39.26657307 28.97997529 51.29406169 23.859375 60.5859375 C17.38812716 70.42354154 9.5262031 79.46679794 -1.6875 83.9375 C-14.64086819 86.42365991 -28.35717937 86.67521119 -39.77734375 79.65234375 C-49.61678142 72.87238574 -56.45994527 63.36275186 -60.32421875 52.078125 C-62.42445039 39.70256654 -60.81847818 28.08230517 -54.078125 17.3828125 C-41.73832267 0.57124695 -20.16483634 -7.96667757 0 0 Z " fill="#151515" transform="translate(369.6875,328.0625)"/>
<path d="M0 0 C10.79291616 8.89780026 16.69387322 18.28608316 18.08203125 32.0625 C18.66777476 45.20267931 14.53379753 56.74718346 5.82421875 66.50390625 C5.31375 67.08527344 4.80328125 67.66664063 4.27734375 68.265625 C-3.98817695 76.38202548 -15.00333399 80.18567194 -26.36328125 80.25390625 C-39.10324948 79.98506472 -48.857512 75.45473102 -58.04296875 66.73046875 C-62.8841853 61.63991915 -65.66787562 56.02258231 -68.17578125 49.50390625 C-68.541875 48.55773437 -68.90796875 47.6115625 -69.28515625 46.63671875 C-72.42733323 35.5839734 -70.45907473 23.53113147 -65.17578125 13.50390625 C-62.48509011 9.79226127 -59.51808435 6.63262521 -56.17578125 3.50390625 C-55.56347656 2.90835938 -54.95117188 2.3128125 -54.3203125 1.69921875 C-39.40403148 -12.02239446 -16.07333555 -11.85445635 0 0 Z " fill="#151515" transform="translate(379.17578125,106.49609375)"/>
<path d="M0 0 C1.31834839 0.00858032 1.31834839 0.00858032 2.66333008 0.01733398 C15.25625123 0.36150419 24.32999125 5.78594389 33.21875 14.41015625 C37.49696728 18.96935814 40.126349 23.64234654 42.25 29.5 C42.60707031 30.41007812 42.96414062 31.32015625 43.33203125 32.2578125 C46.14094272 42.17864875 45.23002524 53.50482942 40.25 62.5 C39.8375 63.32757813 39.425 64.15515625 39 65.0078125 C33.8818606 74.51708287 25.36818948 82.48142829 15.25 86.5 C1.76310052 89.52292575 -12.29267924 88.35055305 -24.3125 81.5625 C-34.21244875 74.9157922 -40.61432414 64.54437227 -43.33203125 53.03515625 C-45.24969817 41.40369989 -43.62565885 29.19300198 -36.75 19.5 C-27.35529721 7.28317305 -15.55937701 -0.11795325 0 0 Z " fill="#151515" transform="translate(156.75,325.5)"/>
<path d="M0 0 C0.66 0.33 1.32 0.66 2 1 C-2.95 5.95 -7.9 10.9 -13 16 C-13.66 15.67 -14.32 15.34 -15 15 C-10.39863498 9.46398272 -5.53601728 4.60136502 0 0 Z " fill="#D9D9D9" transform="translate(67,52)"/>
<path d="M0 0 C0.66 0.33 1.32 0.66 2 1 C-1.63 4.63 -5.26 8.26 -9 12 C-9.66 11.67 -10.32 11.34 -11 11 C-10.04882866 9.8274869 -9.08882991 8.66212985 -8.125 7.5 C-7.32449219 6.52546875 -7.32449219 6.52546875 -6.5078125 5.53125 C-6.01023437 5.0259375 -5.51265625 4.520625 -5 4 C-4.34 4 -3.68 4 -3 4 C-3 3.34 -3 2.68 -3 2 C-2.01 1.34 -1.02 0.68 0 0 Z " fill="#2D2D2D" transform="translate(131,106)"/>
</svg>
